<?xml version="1.0" encoding="iso-8859-1"?>
<!-- Generator: Adobe Illustrator 19.0.0, SVG Export Plug-In . SVG Version: 6.00 Build 0)  -->
<svg version="1.1" id="Layer_1" xmlns="http://www.w3.org/2000/svg" xmlns:xlink="http://www.w3.org/1999/xlink" x="0px" y="0px"
	 viewBox="0 0 503.607 503.607" style="enable-background:new 0 0 503.607 503.607;" xml:space="preserve">
<g transform="translate(1 1)">
	<g>
		<path d="M477.426,242.41h-1.651L437.977,51.879c-2.518-10.911-12.59-19.305-24.341-19.305H87.971
			c-11.751,0-21.823,8.393-24.341,20.144L25.845,242.41H24.18C9.911,242.41-1,253.321-1,267.59v92.328v16.787v41.967v16.787v8.393
			c0,14.269,10.911,25.18,25.18,25.18h57.075c9.233,0,17.626-5.036,21.823-14.269l9.877-19.305h275.305l9.428,19.305
			c4.197,9.233,13.43,14.269,22.662,14.269h57.075c14.269,0,25.18-10.911,25.18-25.18v-8.393v-16.787v-41.967v-16.787V267.59
			C502.607,253.321,491.695,242.41,477.426,242.41z M79.577,56.075c0.839-4.197,4.197-6.715,8.393-6.715h325.666
			c4.197,0,7.554,3.357,8.393,6.715l36.931,186.334h-39.647C397,167.956,329.049,116.508,250.803,116.508
			S104.606,167.956,82.293,242.41H42.646L79.577,56.075z M401.885,242.41H99.721c21.823-64.63,82.256-109.115,151.082-109.115
			S380.062,177.78,401.885,242.41z M88.81,447.21c-1.679,3.357-4.197,5.036-7.554,5.036H24.18c-5.036,0-8.393-3.357-8.393-8.393
			v-8.393h78.898L88.81,447.21z M485.82,443.852c0,5.036-3.357,8.393-8.393,8.393h-57.075c-3.357,0-5.875-2.518-7.554-5.036
			l-5.875-11.751h78.898V443.852z M485.82,418.672H380.062H121.544H15.787v-41.967H485.82V418.672z M15.787,359.918v-25.18h25.18
			c5.036,0,8.393-3.357,8.393-8.393c0-5.036-3.357-8.393-8.393-8.393h-25.18v-16.787h25.18c5.036,0,8.393-3.357,8.393-8.393
			s-3.357-8.393-8.393-8.393h-25.18V267.59c0-5.036,3.357-8.393,8.393-8.393h53.718h345.81h53.718c5.036,0,8.393,3.357,8.393,8.393
			v16.787h-33.574c-5.036,0-8.393,3.357-8.393,8.393s3.357,8.393,8.393,8.393h33.574v16.787h-33.574
			c-5.036,0-8.393,3.357-8.393,8.393c0,5.036,3.357,8.393,8.393,8.393h33.574v25.18H15.787z"/>
	</g>
</g>
<g>
</g>
<g>
</g>
<g>
</g>
<g>
</g>
<g>
</g>
<g>
</g>
<g>
</g>
<g>
</g>
<g>
</g>
<g>
</g>
<g>
</g>
<g>
</g>
<g>
</g>
<g>
</g>
<g>
</g>
</svg>
